<svg viewBox="0 0 520 160" width="520" height="160" xmlns="http://www.w3.org/2000/svg">
  <defs>
    <linearGradient id="g" x1="0" y1="0" x2="1" y2="0">
      <stop offset="0%" stop-color="#FFD166"/>
      <stop offset="100%" stop-color="#EF476F"/>
    </linearGradient>
  </defs>
  <rect x="120" y="6" width="280" height="24" rx="8" fill="#000" opacity="0.6"/>
  <text x="260" y="20" font-size="14" text-anchor="middle" fill="#fff" font-family="Menlo,Consolas,Monaco,'SFMono-Regular',monospace">Stelle raccolte per anno</text>
  <rect x="80" y="40" width="400" height="16" rx="8" fill="#eaeaea"/>
  <rect x="80" y="40" width="400" height="16" rx="8" fill="url(#g)"/>
  <rect x="6" y="42" width="44" height="20" rx="6" fill="#000" opacity="0.6"/>
  <text x="10" y="52" font-size="12" fill="#fff" font-family="Menlo,Consolas,Monaco,'SFMono-Regular',monospace">2015</text>
  <text x="472" y="48" font-size="12" text-anchor="end" dominant-baseline="middle" fill="#fff" stroke="#000" stroke-width="1" paint-order="stroke fill" font-weight="700" font-family="Menlo,Consolas,Monaco,'SFMono-Regular',monospace">50</text>
  <rect x="80" y="68" width="400" height="16" rx="8" fill="#eaeaea"/>
  <rect x="80" y="68" width="64" height="16" rx="8" fill="url(#g)"/>
  <rect x="6" y="70" width="44" height="20" rx="6" fill="#000" opacity="0.6"/>
  <text x="10" y="80" font-size="12" fill="#fff" font-family="Menlo,Consolas,Monaco,'SFMono-Regular',monospace">2016</text>
  <text x="136" y="76" font-size="12" text-anchor="end" dominant-baseline="middle" fill="#fff" stroke="#000" stroke-width="1" paint-order="stroke fill" font-weight="700" font-family="Menlo,Consolas,Monaco,'SFMono-Regular',monospace">8</text>
  <rect x="80" y="96" width="400" height="16" rx="8" fill="#eaeaea"/>
  <rect x="80" y="96" width="128" height="16" rx="8" fill="url(#g)"/>
  <rect x="6" y="98" width="44" height="20" rx="6" fill="#000" opacity="0.6"/>
  <text x="10" y="108" font-size="12" fill="#fff" font-family="Menlo,Consolas,Monaco,'SFMono-Regular',monospace">2023</text>
  <text x="200" y="104" font-size="12" text-anchor="end" dominant-baseline="middle" fill="#fff" stroke="#000" stroke-width="1" paint-order="stroke fill" font-weight="700" font-family="Menlo,Consolas,Monaco,'SFMono-Regular',monospace">16</text>
  <rect x="80" y="124" width="400" height="16" rx="8" fill="#eaeaea"/>
  <rect x="80" y="124" width="304" height="16" rx="8" fill="url(#g)"/>
  <rect x="6" y="126" width="44" height="20" rx="6" fill="#000" opacity="0.6"/>
  <text x="10" y="136" font-size="12" fill="#fff" font-family="Menlo,Consolas,Monaco,'SFMono-Regular',monospace">2024</text>
  <text x="376" y="132" font-size="12" text-anchor="end" dominant-baseline="middle" fill="#fff" stroke="#000" stroke-width="1" paint-order="stroke fill" font-weight="700" font-family="Menlo,Consolas,Monaco,'SFMono-Regular',monospace">38</text>
</svg>